<svg xmlns="http://www.w3.org/2000/svg" viewBox="7.991999626159668 14.895999908447266 48.013999938964844 34.20900344848633"><g><path d="M52.371 49.105H11.629a3.642 3.642 0 0 1-3.637-3.637V18.292a3.4 3.4 0 0 1 3.397-3.396H52.61a3.4 3.4 0 0 1 3.396 3.396v27.177a3.64 3.64 0 0 1-3.635 3.636zM11.39 16.895c-.771 0-1.397.626-1.397 1.396v27.177c0 .902.734 1.637 1.637 1.637h40.742c.902 0 1.636-.734 1.636-1.637V18.292c0-.771-.626-1.396-1.396-1.396H11.39z" fill="#999999" opacity="1" data-original="#000000"></path><path d="M32 36.506a4.309 4.309 0 0 1-2.844-1.063L12.936 21.25a1 1 0 0 1 1.316-1.506l16.221 14.192a2.327 2.327 0 0 0 3.055 0l16.22-14.192a1 1 0 0 1 1.316 1.506l-16.22 14.192A4.314 4.314 0 0 1 32 36.506z" fill="#999999" opacity="1" data-original="#000000"></path></g></svg>