
<svg xmlns="http://www.w3.org/2000/svg" viewBox="0 0 15.97 7.68"><defs><style>.cls-1{fill:#231f20;}</style></defs><title>arrow 1</title><g id="Слой_2" data-name="Слой 2"><g id="Слой_1-2" data-name="Слой 1"><path class="cls-1" d="M15.94,4a.5.5,0,0,0,0-.27s0,0,0,0a.61.61,0,0,0-.07-.14s0,0-.07-.06l0,0L11.45.1a.51.51,0,0,0-.7.09.51.51,0,0,0,.09.71L14,3.33H.5a.5.5,0,0,0-.5.5.5.5,0,0,0,.5.5H14L10.84,6.79a.5.5,0,0,0,.31.89.47.47,0,0,0,.3-.1l4.33-3.35A.62.62,0,0,0,15.93,4V4S15.94,4,15.94,4Z"/></g></g></svg>