
<svg id="" width="20" height="20" viewBox="0 0 20 20" fill="none" xmlns="http://www.w3.org/2000/svg">
<path fill-rule="evenodd" clip-rule="evenodd" d="M15.4328 13.2575L19.5554 17.38C19.8519 17.6765 20.0001 18.0372 20 18.4616C20 18.8783 19.8477 19.2389 19.5433 19.5433C19.2391 19.8477 18.8783 20 18.4617 20C18.0286 20 17.6685 19.8477 17.38 19.5433L13.2575 15.4328C11.8232 16.4262 10.2246 16.9232 8.4616 16.9232C7.31587 16.9232 6.22015 16.7009 5.1744 16.2562C4.12878 15.8113 3.22721 15.2106 2.47 14.4531C1.7127 13.6959 1.11172 12.7946 0.667081 11.749C0.22236 10.703 0 9.60754 0 8.46179C0 7.31596 0.22236 6.22023 0.667081 5.17447C1.11176 4.12883 1.7127 3.22725 2.47 2.47003C3.22721 1.71281 4.12861 1.11177 5.1744 0.667131C6.22002 0.222363 7.31587 0 8.4616 0C9.60742 0 10.7032 0.222363 11.7491 0.667131C12.7947 1.11177 13.6959 1.71281 14.4532 2.47003C15.2104 3.22725 15.8114 4.12866 16.256 5.17447C16.7009 6.2201 16.9233 7.31596 16.9233 8.46179C16.9233 10.2244 16.4263 11.8233 15.4328 13.2575ZM8.45592 13.8255C9.93415 13.8255 11.1984 13.3002 12.249 12.2494C13.2997 11.1987 13.8252 9.93459 13.8252 8.45634C13.8252 6.97835 13.2998 5.71384 12.249 4.66334C11.1983 3.61279 9.93398 3.08728 8.45592 3.08728C6.97794 3.08728 5.71345 3.61258 4.66295 4.66334C3.61237 5.71384 3.08691 6.97835 3.08691 8.45634C3.08691 9.93459 3.61225 11.1987 4.66295 12.2494C5.71366 13.3 6.97794 13.8255 8.45592 13.8255Z" fill="#ADB0B8"/>
</svg>
